<svg width="20" height="20" viewBox="0 0 20 20" fill="none" xmlns="http://www.w3.org/2000/svg">
    <style>
        path { fill: #E5533F; }
    </style>
    <path
        d="M19.4242 14.993L16.5336 12.1011C16.1454 11.7148 15.6255 11.502 15.07 11.502C14.492 11.502 13.9461 11.7297 13.5334 12.1426L12.4082 13.2676C11.5339 12.7816 10.3717 12.1131 9.16518 10.9066C7.96004 9.70103 7.29152 8.5423 6.80304 7.66322L7.92934 6.53775C8.76672 5.69863 8.78385 4.35242 7.96765 3.53696L5.07756 0.646794C4.69044 0.258592 4.1706 0.0447998 3.6137 0.0447998C3.04852 0.0447998 2.51387 0.262398 2.10358 0.65846C1.85537 0.858352 0.609766 1.95793 0.145529 4.22558C-0.504453 7.39962 0.988949 10.4535 5.30021 14.7665C10.1162 19.5811 14.2277 19.9553 15.3731 19.9553C15.6116 19.9553 15.7554 19.9405 15.7938 19.9361C18.0399 19.6728 18.8441 18.6753 19.4313 17.947C20.1921 17.0031 20.1895 15.761 19.4242 14.993ZM18.4651 17.168C17.9131 17.8526 17.3919 18.4991 15.6494 18.7034C15.6485 18.7035 15.5532 18.7141 15.3731 18.7141C14.3483 18.7141 10.6564 18.3661 6.1778 13.8889C2.20204 9.91151 0.806597 7.18392 1.36135 4.47445C1.76626 2.49654 2.84126 1.65585 2.88305 1.62392L2.92011 1.59653L2.95263 1.56393C3.13209 1.38464 3.36681 1.28585 3.61361 1.28585C3.83833 1.28585 4.04616 1.37008 4.19939 1.52381L7.09014 4.41463C7.42274 4.74691 7.40504 5.30604 7.05117 5.66065L5.77743 6.93331L5.7565 6.95524C5.42456 7.32085 5.46361 7.81496 5.64646 8.13672C6.17408 9.08886 6.89678 10.3929 8.28743 11.7839C9.67344 13.1699 10.9756 13.8921 11.925 14.4187C12.0201 14.4721 12.2164 14.5616 12.462 14.5616C12.7521 14.5616 13.0184 14.4388 13.2156 14.215L14.411 13.0199C14.5894 12.8414 14.8234 12.743 15.0699 12.743C15.2951 12.743 15.504 12.8275 15.6569 12.9796L18.5457 15.8696C18.9126 16.2378 18.7611 16.8008 18.4651 17.168Z"
    />
    <path
        d="M12.1166 3.08543C13.1828 3.20813 14.4383 3.85397 15.3149 4.73074C16.1998 5.61561 16.8472 6.8838 16.9641 7.96161C16.9986 8.27957 17.2675 8.51521 17.5803 8.51521C17.6026 8.51521 17.6253 8.51396 17.648 8.51157C17.9887 8.47458 18.2349 8.16846 18.1979 7.82774C18.0501 6.46532 17.2816 4.94238 16.1925 3.85323C15.1136 2.77426 13.6063 2.0077 12.2585 1.85257C11.9182 1.8131 11.6103 2.05767 11.5711 2.39805C11.5319 2.73843 11.776 3.04621 12.1166 3.08543Z"
    />
    <path
        d="M11.5368 5.68491C12.1135 5.75135 12.9116 6.1791 13.4344 6.70191C13.9617 7.22928 14.3903 8.03497 14.4534 8.61785C14.4879 8.93589 14.7568 9.17153 15.0695 9.17153C15.0919 9.17153 15.1145 9.17029 15.1371 9.16789C15.4778 9.1309 15.7241 8.82478 15.6872 8.48407C15.5793 7.48891 14.9186 6.43111 14.3118 5.82432C13.7105 5.22291 12.6631 4.5654 11.6787 4.45196C11.3379 4.41233 11.0305 4.65699 10.9913 4.99737C10.9521 5.33783 11.1964 5.64569 11.5368 5.68491Z"
    />
</svg>
