<?xml version="1.0" encoding="utf-8"?>
<!-- Generator: Adobe Illustrator 17.0.1, SVG Export Plug-In . SVG Version: 6.00 Build 0)  -->
<!DOCTYPE svg PUBLIC "-//W3C//DTD SVG 1.1//EN" "http://www.w3.org/Graphics/SVG/1.1/DTD/svg11.dtd">
<svg version="1.1" id="Layer_1" xmlns="http://www.w3.org/2000/svg" xmlns:xlink="http://www.w3.org/1999/xlink" x="0px" y="0px"
	 width="60px" height="60px" viewBox="0 0 60 60" enable-background="new 0 0 60 60" xml:space="preserve">
<path fill="#40596B" d="M57.5,8.625h-55c-1.375,0-2.5,1.125-2.5,2.5V48c0,1.375,1.125,2.5,2.5,2.5h55c1.375,0,2.5-1.125,2.5-2.5
	V11.125C60,9.75,58.875,8.625,57.5,8.625z"/>
<rect x="3.75" y="12.375" fill="#FFFFFF" width="52.5" height="34.125"/>
<path fill="#40596B" d="M42.417,31.493v-4.069l-2.035-0.763c-0.254-0.89-0.509-1.653-1.017-2.416l0.89-1.907l-2.925-2.925
	l-1.908,0.89c-0.763-0.382-1.526-0.763-2.416-1.017l-0.763-2.035h-4.069l-0.763,2.035c-0.89,0.254-1.653,0.509-2.416,1.017
	l-1.907-0.89l-2.925,2.925l0.89,1.907c-0.382,0.763-0.763,1.526-1.017,2.416L18,27.424v4.069l2.035,0.763
	c0.254,0.89,0.509,1.653,1.017,2.416l-0.89,1.907l2.925,2.925l1.907-0.89c0.763,0.382,1.526,0.763,2.416,1.017l0.763,2.035h4.069
	l0.763-2.035c0.89-0.254,1.653-0.509,2.416-1.017l1.908,0.89l2.925-2.925l-0.89-1.907c0.382-0.763,0.763-1.526,1.017-2.416
	L42.417,31.493z M35.168,29.458c0,2.798-2.289,4.96-4.96,4.96c-2.798,0-4.96-2.162-4.96-4.96s2.289-4.96,4.96-4.96
	C33.006,24.499,35.168,26.661,35.168,29.458z"/>
<path fill="#FF6E58" d="M35.549,24.117c-2.925-2.925-7.63-2.925-10.555,0s-2.925,7.63,0,10.555s7.63,2.925,10.555,0
	C38.474,31.875,38.474,27.042,35.549,24.117z M33.769,33.019c-1.907,1.907-5.087,1.907-6.994,0c-1.907-1.908-1.907-5.087,0-6.994
	s5.087-1.907,6.994,0C35.677,27.932,35.677,30.984,33.769,33.019z"/>
</svg>
